<svg version="1.1" id="Layer_1" xmlns="http://www.w3.org/2000/svg" xmlns:xlink="http://www.w3.org/1999/xlink" x="0px" y="0px"
	 width="100%" viewBox="0 0 512 512" enable-background="new 0 0 512 512" xml:space="preserve">
<path fill="#000000" opacity="1.000000" stroke="none" 
	d="
M343.000000,513.000000 
	C228.694443,513.000000 114.888878,513.000000 1.041656,513.000000 
	C1.041656,342.402740 1.041656,171.805481 1.041656,1.104111 
	C171.555573,1.104111 342.111206,1.104111 512.833435,1.104111 
	C512.833435,171.666534 512.833435,342.333252 512.833435,513.000000 
	C456.472137,513.000000 399.986053,513.000000 343.000000,513.000000 
M276.830200,112.329933 
	C276.215302,112.144051 275.600433,111.958168 275.043243,111.923172 
	C275.043243,111.923172 275.193848,111.864731 274.900726,111.340363 
	C274.269318,110.914474 273.637909,110.488586 272.628876,109.934959 
	C272.628876,109.934959 272.231262,109.906029 271.883392,109.341156 
	C271.253510,109.148270 270.623657,108.955383 270.046509,108.909073 
	C270.046509,108.909073 270.192780,108.855476 269.835785,108.319984 
	C269.221100,108.138229 268.606445,107.956474 268.043274,107.921120 
	C268.043274,107.921120 268.189423,107.868835 267.847565,107.338249 
	C267.255798,107.146400 266.664032,106.954559 265.752075,106.249039 
	C265.165680,106.178276 264.579254,106.107521 263.231354,105.907043 
	C260.117798,105.533989 257.004242,105.160927 253.095383,104.939949 
	C250.475662,105.681076 247.644577,106.014000 245.276169,107.240456 
	C238.383240,110.809883 231.642792,114.679695 224.901520,118.534866 
	C207.231384,128.639999 189.598251,138.809769 171.939377,148.934631 
	C159.812302,155.887817 147.525940,162.577057 135.583740,169.833527 
	C128.687286,174.024048 121.972290,178.816055 120.174263,188.445511 
	C120.116890,188.940338 120.009323,189.435181 120.009270,189.930008 
	C120.004204,234.570999 119.985237,279.212067 120.091484,323.852814 
	C120.095711,325.628815 121.295624,327.402008 121.957314,329.601166 
	C121.957314,329.601166 122.071579,330.010651 121.973564,330.497803 
	C121.973564,330.497803 122.103630,330.977417 122.008049,331.741241 
	C122.946068,333.113556 123.884079,334.485901 125.027252,336.426453 
	C128.828812,339.554504 132.344940,343.143311 136.492691,345.712463 
	C144.556610,350.707245 153.001663,355.083160 161.240097,359.800568 
	C173.508698,366.825714 185.731064,373.931488 197.980408,380.990326 
	C212.517502,389.367554 227.183807,397.529480 241.558044,406.177094 
	C250.132446,411.335541 259.005768,411.951630 267.458954,407.598633 
	C282.471008,399.868073 297.006226,391.208130 311.705383,382.874268 
	C326.316467,374.590332 341.101227,366.582825 355.402405,357.791382 
	C367.107880,350.595581 380.515350,345.691223 389.793732,333.687775 
	C390.494995,330.785767 391.196259,327.883789 392.024933,324.502625 
	C392.024933,324.502625 391.941254,324.013916 392.041290,323.167938 
	C392.071259,321.465363 392.101227,319.762817 392.775635,317.494049 
	C392.838654,316.833191 392.956604,316.172333 392.956818,315.511444 
	C392.968048,279.895386 392.978333,244.279343 392.934143,208.663361 
	C392.932617,207.428619 392.376831,206.194565 392.051208,204.038651 
	C392.005432,200.019577 391.959656,196.000519 392.047363,191.184448 
	C391.753235,189.426575 391.459106,187.668701 390.834229,185.332367 
	C390.498749,184.535385 390.163269,183.738403 389.824524,182.427155 
	C389.542297,182.245926 389.260101,182.064697 389.032257,181.963303 
	C389.032257,181.963303 389.111176,181.907593 388.786224,181.308670 
	C385.126709,175.175613 379.079742,171.732758 373.332306,168.133743 
	C365.112915,162.986832 356.572296,158.352600 348.164185,153.507553 
	C343.791290,150.987732 339.449432,148.409760 335.016479,145.999817 
	C331.685028,144.188690 328.108795,142.808731 324.855865,140.876144 
	C317.413483,136.454590 310.146942,131.737793 302.723877,127.282776 
	C296.798706,123.726753 290.747803,120.380295 284.559570,116.320633 
	C283.706207,116.137589 282.852875,115.954536 282.042572,115.918961 
	C282.042572,115.918961 282.189819,115.875084 281.894714,115.365799 
	C281.270813,114.952682 280.646942,114.539566 279.628265,113.976952 
	C279.628265,113.976952 279.210480,113.916519 278.888824,113.334969 
	C278.257965,113.146721 277.627075,112.958481 277.044342,112.914520 
	C277.044342,112.914520 277.188324,112.865585 276.830200,112.329933 
z"/>
<path fill="#953DAD" opacity="1.000000" stroke="none" 
	d="
M272.231262,109.906036 
	C272.231262,109.906029 272.628876,109.934959 272.935211,110.276779 
	C273.892303,111.033981 274.543091,111.449356 275.193848,111.864731 
	C275.193848,111.864731 275.043243,111.923172 275.259979,112.045959 
	C276.047241,112.401031 276.617798,112.633308 277.188324,112.865585 
	C277.188324,112.865585 277.044342,112.914520 277.263916,113.050720 
	C278.059143,113.430122 278.634827,113.673325 279.210480,113.916519 
	C279.210480,113.916519 279.628265,113.976952 279.947784,114.320663 
	C280.908142,115.067947 281.548981,115.471519 282.189819,115.875084 
	C282.189819,115.875084 282.042572,115.918961 282.253021,116.053757 
	C283.226562,116.439316 283.989624,116.690063 284.752716,116.940811 
	C290.747803,120.380295 296.798706,123.726753 302.723877,127.282776 
	C310.146942,131.737793 317.413483,136.454590 324.855865,140.876144 
	C328.108795,142.808731 331.685028,144.188690 335.016479,145.999817 
	C339.449432,148.409760 343.791290,150.987732 348.164185,153.507553 
	C356.572296,158.352600 365.112915,162.986832 373.332306,168.133743 
	C379.079742,171.732758 385.126709,175.175613 388.579285,181.665619 
	C378.797882,187.316040 369.228424,192.618515 359.647522,197.900299 
	C351.084473,202.620987 342.508850,207.318878 333.648315,211.852890 
	C317.133301,185.646545 293.683075,170.612366 263.222595,168.246918 
	C232.567566,165.866364 206.693298,177.000671 186.933273,200.687393 
	C171.351730,219.365250 164.845688,241.194748 166.732971,265.581085 
	C167.766098,278.930267 172.216766,291.094788 177.763489,302.987183 
	C161.121750,312.384613 144.792633,321.624847 128.584808,331.073151 
	C126.954704,332.023376 126.058754,334.233032 124.822098,335.858215 
	C123.884079,334.485901 122.946068,333.113556 122.109787,331.241211 
	C122.280159,330.480408 122.233505,330.236908 122.071579,330.010651 
	C122.071579,330.010651 121.957314,329.601166 121.967819,328.909241 
	C121.986221,283.373749 122.008095,238.530182 121.954140,193.686691 
	C121.951828,191.766998 121.248657,189.848145 120.871979,187.928909 
	C121.972290,178.816055 128.687286,174.024048 135.583740,169.833527 
	C147.525940,162.577057 159.812302,155.887817 171.939377,148.934631 
	C189.598251,138.809769 207.231384,128.639999 224.901520,118.534866 
	C231.642792,114.679695 238.383240,110.809883 245.276169,107.240456 
	C247.644577,106.014000 250.475662,105.681076 253.806320,105.091743 
	C257.675781,105.507942 260.834320,105.772346 263.992859,106.036758 
	C264.579254,106.107521 265.165680,106.178276 266.135864,106.713310 
	C267.076233,107.407997 267.632843,107.638420 268.189423,107.868835 
	C268.189423,107.868835 268.043274,107.921120 268.261230,108.047981 
	C269.050354,108.401718 269.621582,108.628601 270.192780,108.855484 
	C270.192780,108.855476 270.046509,108.909073 270.267761,109.043198 
	C271.069733,109.420219 271.650513,109.663124 272.231262,109.906036 
z"/>
<path fill="#69217B" opacity="1.000000" stroke="none" 
	d="
M124.924683,336.142334 
	C126.058754,334.233032 126.954704,332.023376 128.584808,331.073151 
	C144.792633,321.624847 161.121750,312.384613 178.053802,303.170044 
	C200.919128,339.503906 242.353973,355.876831 281.926147,343.904114 
	C304.576965,337.051056 321.643188,322.948639 334.413940,303.073883 
	C336.087006,303.813110 337.454010,304.411163 338.740753,305.149231 
	C355.567047,314.800659 372.381958,324.471924 389.199738,334.138214 
	C380.515350,345.691223 367.107880,350.595581 355.402405,357.791382 
	C341.101227,366.582825 326.316467,374.590332 311.705383,382.874268 
	C297.006226,391.208130 282.471008,399.868073 267.458954,407.598633 
	C259.005768,411.951630 250.132446,411.335541 241.558044,406.177094 
	C227.183807,397.529480 212.517502,389.367554 197.980408,380.990326 
	C185.731064,373.931488 173.508698,366.825714 161.240097,359.800568 
	C153.001663,355.083160 144.556610,350.707245 136.492691,345.712463 
	C132.344940,343.143311 128.828812,339.554504 124.924683,336.142334 
z"/>
<path fill="#832D99" opacity="1.000000" stroke="none" 
	d="
M389.496735,333.912994 
	C372.381958,324.471924 355.567047,314.800659 338.740753,305.149231 
	C337.454010,304.411163 336.087006,303.813110 334.298889,302.746704 
	C321.460114,295.046844 309.087677,287.736603 296.675110,280.495087 
	C296.076965,280.146149 295.125824,280.402313 294.114136,280.083679 
	C289.153503,276.809113 284.421387,273.821838 279.681213,270.847351 
	C272.454651,266.312683 265.222595,261.786804 258.212433,256.988525 
	C262.375519,254.264282 266.301941,251.780746 270.266144,249.358994 
	C278.182343,244.522934 286.119263,239.720795 294.410706,234.946930 
	C307.577820,227.747650 320.384796,220.511230 333.171265,213.238815 
	C333.538177,213.030136 333.687805,212.439407 333.938782,212.026855 
	C342.508850,207.318878 351.084473,202.620987 359.647522,197.900299 
	C369.228424,192.618515 378.797882,187.316040 388.741760,181.965088 
	C389.111176,181.907593 389.032257,181.963303 389.154694,182.093536 
	C389.441071,182.478027 389.624634,182.717239 389.827759,182.941406 
	C390.163269,183.738403 390.498749,184.535385 390.794495,185.891647 
	C391.141144,188.294434 391.527527,190.137939 391.913879,191.981445 
	C391.959656,196.000519 392.005432,200.019577 391.857361,204.860443 
	C391.441681,207.313034 391.028107,208.943619 391.026306,210.574646 
	C390.989075,244.483063 390.980133,278.391571 391.047180,312.299927 
	C391.050964,314.220734 391.753754,316.140167 392.131226,318.060242 
	C392.101227,319.762817 392.071259,321.465363 391.926605,323.704437 
	C391.719818,324.496582 391.748352,324.743530 391.897522,324.981781 
	C391.196259,327.883789 390.494995,330.785767 389.496735,333.912994 
M341.191772,228.059311 
	C339.566223,228.059311 337.940674,228.059311 336.243134,228.059311 
	C335.562561,231.619171 335.844330,235.391922 334.118713,237.585632 
	C332.617950,239.493530 328.848572,239.616852 325.933807,240.577530 
	C325.933807,242.462006 325.933807,244.544708 325.933807,246.798386 
	C328.303772,246.986557 330.407013,247.153549 332.789734,247.342743 
	C332.015717,251.599167 331.287994,255.601059 330.562653,259.589752 
	C327.779022,259.767151 325.526215,259.910706 323.163818,260.061249 
	C323.163818,262.535461 323.163818,264.632111 323.163818,266.958710 
	C325.119659,267.150177 326.877289,267.322266 329.123932,267.542206 
	C328.619812,271.321899 328.147217,274.865112 327.632355,278.725372 
	C330.217834,278.725372 332.482941,278.725372 335.089661,278.725372 
	C335.802765,275.045441 336.519836,271.345093 337.248871,267.583038 
	C341.212372,267.583038 344.910492,267.583038 348.824310,267.583038 
	C348.255829,271.505798 347.742981,275.044952 347.214752,278.690063 
	C349.970367,278.690063 352.384552,278.690063 354.732025,278.690063 
	C356.843872,268.078308 356.843872,268.078308 364.963654,266.618042 
	C364.963654,264.424683 364.963654,262.226440 364.963654,260.067535 
	C362.499695,259.841766 360.447571,259.653748 358.142517,259.442535 
	C358.928833,255.045792 359.618774,251.188004 360.325012,247.238892 
	C363.126526,247.081543 365.532471,246.946396 367.794922,246.819321 
	C367.794922,244.195465 367.794922,242.091064 367.794922,239.834946 
	C365.780334,239.612625 364.022156,239.418594 361.943634,239.189209 
	C362.363251,235.396332 362.749756,231.902496 363.154724,228.241989 
	C360.403900,228.241989 358.286102,228.241989 355.869659,228.241989 
	C355.120941,232.027512 354.395508,235.695221 353.712189,239.150085 
	C349.514374,239.150085 345.933411,239.150085 342.085602,239.150085 
	C342.603760,235.961853 343.177826,233.201584 343.420898,230.412445 
	C343.484650,229.680511 342.522278,228.859161 341.191772,228.059311 
z"/>
<path fill="#9B3DB7" opacity="1.000000" stroke="none" 
	d="
M120.523117,188.187210 
	C121.248657,189.848145 121.951828,191.766998 121.954140,193.686691 
	C122.008095,238.530182 121.986221,283.373749 121.958374,328.696899 
	C121.295624,327.402008 120.095711,325.628815 120.091484,323.852814 
	C119.985237,279.212067 120.004204,234.570999 120.009270,189.930008 
	C120.009323,189.435181 120.116890,188.940338 120.523117,188.187210 
z"/>
<path fill="#8B2FA2" opacity="1.000000" stroke="none" 
	d="
M392.453430,317.777161 
	C391.753754,316.140167 391.050964,314.220734 391.047180,312.299927 
	C390.980133,278.391571 390.989075,244.483063 391.026306,210.574646 
	C391.028107,208.943619 391.441681,207.313034 391.871460,205.321228 
	C392.376831,206.194565 392.932617,207.428619 392.934143,208.663361 
	C392.978333,244.279343 392.968048,279.895386 392.956818,315.511444 
	C392.956604,316.172333 392.838654,316.833191 392.453430,317.777161 
z"/>
<path fill="#9B3DB7" opacity="1.000000" stroke="none" 
	d="
M263.612122,105.971901 
	C260.834320,105.772346 257.675781,105.507942 254.203979,105.015701 
	C257.004242,105.160927 260.117798,105.533989 263.612122,105.971901 
z"/>
<path fill="#8B2FA2" opacity="1.000000" stroke="none" 
	d="
M391.980652,191.582947 
	C391.527527,190.137939 391.141144,188.294434 390.959869,186.180878 
	C391.459106,187.668701 391.753235,189.426575 391.980652,191.582947 
z"/>
<path fill="#9B3DB7" opacity="1.000000" stroke="none" 
	d="
M275.047302,111.602554 
	C274.543091,111.449356 273.892303,111.033981 273.124023,110.340652 
	C273.637909,110.488586 274.269318,110.914474 275.047302,111.602554 
z"/>
<path fill="#9B3DB7" opacity="1.000000" stroke="none" 
	d="
M282.042267,115.620438 
	C281.548981,115.471519 280.908142,115.067947 280.145172,114.395416 
	C280.646942,114.539566 281.270813,114.952682 282.042267,115.620438 
z"/>
<path fill="#9B3DB7" opacity="1.000000" stroke="none" 
	d="
M284.656128,116.630722 
	C283.989624,116.690063 283.226562,116.439316 282.231506,115.980026 
	C282.852875,115.954536 283.706207,116.137589 284.656128,116.630722 
z"/>
<path fill="#9B3DB7" opacity="1.000000" stroke="none" 
	d="
M272.057312,109.623596 
	C271.650513,109.663124 271.069733,109.420219 270.241394,108.969910 
	C270.623657,108.955383 271.253510,109.148270 272.057312,109.623596 
z"/>
<path fill="#9B3DB7" opacity="1.000000" stroke="none" 
	d="
M268.018494,107.603546 
	C267.632843,107.638420 267.076233,107.407997 266.295959,106.970154 
	C266.664032,106.954559 267.255798,107.146400 268.018494,107.603546 
z"/>
<path fill="#9B3DB7" opacity="1.000000" stroke="none" 
	d="
M279.049652,113.625748 
	C278.634827,113.673325 278.059143,113.430122 277.239868,112.978577 
	C277.627075,112.958481 278.257965,113.146721 279.049652,113.625748 
z"/>
<path fill="#9B3DB7" opacity="1.000000" stroke="none" 
	d="
M277.009277,112.597763 
	C276.617798,112.633308 276.047241,112.401031 275.231140,111.970520 
	C275.600433,111.958168 276.215302,112.144051 277.009277,112.597763 
z"/>
<path fill="#9B3DB7" opacity="1.000000" stroke="none" 
	d="
M270.014282,108.587738 
	C269.621582,108.628601 269.050354,108.401718 268.235474,107.974777 
	C268.606445,107.956474 269.221100,108.138229 270.014282,108.587738 
z"/>
<path fill="#9B3DB7" opacity="1.000000" stroke="none" 
	d="
M122.022568,330.254211 
	C122.233505,330.236908 122.280159,330.480408 122.157578,330.859314 
	C122.103630,330.977417 121.973564,330.497803 122.022568,330.254211 
z"/>
<path fill="#8B2FA2" opacity="1.000000" stroke="none" 
	d="
M391.961243,324.742188 
	C391.748352,324.743530 391.719818,324.496582 391.876587,324.127441 
	C391.941254,324.013916 392.024933,324.502625 391.961243,324.742188 
z"/>
<path fill="#953DAD" opacity="1.000000" stroke="none" 
	d="
M389.826172,182.684280 
	C389.624634,182.717239 389.441071,182.478027 389.127502,182.053619 
	C389.260101,182.064697 389.542297,182.245926 389.826172,182.684280 
z"/>
<path fill="#FDFDFE" opacity="1.000000" stroke="none" 
	d="
M333.648315,211.852905 
	C333.687805,212.439407 333.538177,213.030136 333.171265,213.238815 
	C320.384796,220.511230 307.577820,227.747650 294.340820,234.611328 
	C283.048523,218.068909 267.998138,211.121231 248.679733,213.956192 
	C218.339508,218.408600 201.902588,253.796005 217.989868,280.386993 
	C236.549942,309.577789 277.780029,309.391174 294.339050,280.376709 
	C295.125824,280.402313 296.076965,280.146149 296.675110,280.495087 
	C309.087677,287.736603 321.460114,295.046844 333.955566,302.670654 
	C321.643188,322.948639 304.576965,337.051056 281.926147,343.904114 
	C242.353973,355.876831 200.919128,339.503906 178.400696,303.071625 
	C172.216766,291.094788 167.766098,278.930267 166.732971,265.581085 
	C164.845688,241.194748 171.351730,219.365250 186.933273,200.687393 
	C206.693298,177.000671 232.567566,165.866364 263.222595,168.246918 
	C293.683075,170.612366 317.133301,185.646545 333.648315,211.852905 
z"/>
<path fill="#953EAC" opacity="1.000000" stroke="none" 
	d="
M217.899216,280.052094 
	C201.902588,253.796005 218.339508,218.408600 248.679733,213.956192 
	C267.998138,211.121231 283.048523,218.068909 293.977783,234.569061 
	C286.119263,239.720795 278.182343,244.522934 270.266144,249.358994 
	C266.301941,251.780746 262.375519,254.264282 257.865662,257.024231 
	C244.165924,264.903046 231.032562,272.477570 217.899216,280.052094 
z"/>
<path fill="#69217B" opacity="1.000000" stroke="none" 
	d="
M217.989868,280.386993 
	C231.032562,272.477570 244.165924,264.903046 257.646057,257.292877 
	C265.222595,261.786804 272.454651,266.312683 279.681213,270.847351 
	C284.421387,273.821838 289.153503,276.809113 294.114136,280.083679 
	C277.780029,309.391174 236.549942,309.577789 217.989868,280.386993 
z"/>
<path fill="#FDFBFD" opacity="1.000000" stroke="none" 
	d="
M341.611450,228.069092 
	C342.522278,228.859161 343.484650,229.680511 343.420898,230.412445 
	C343.177826,233.201584 342.603760,235.961853 342.085602,239.150085 
	C345.933411,239.150085 349.514374,239.150085 353.712189,239.150085 
	C354.395508,235.695221 355.120941,232.027512 355.869659,228.241989 
	C358.286102,228.241989 360.403900,228.241989 363.154724,228.241989 
	C362.749756,231.902496 362.363251,235.396332 361.943634,239.189209 
	C364.022156,239.418594 365.780334,239.612625 367.794922,239.834946 
	C367.794922,242.091064 367.794922,244.195465 367.794922,246.819321 
	C365.532471,246.946396 363.126526,247.081543 360.325012,247.238892 
	C359.618774,251.188004 358.928833,255.045792 358.142517,259.442535 
	C360.447571,259.653748 362.499695,259.841766 364.963654,260.067535 
	C364.963654,262.226440 364.963654,264.424683 364.963654,266.618042 
	C356.843872,268.078308 356.843872,268.078308 354.732025,278.690063 
	C352.384552,278.690063 349.970367,278.690063 347.214752,278.690063 
	C347.742981,275.044952 348.255829,271.505798 348.824310,267.583038 
	C344.910492,267.583038 341.212372,267.583038 337.248871,267.583038 
	C336.519836,271.345093 335.802765,275.045441 335.089661,278.725372 
	C332.482941,278.725372 330.217834,278.725372 327.632355,278.725372 
	C328.147217,274.865112 328.619812,271.321899 329.123932,267.542206 
	C326.877289,267.322266 325.119659,267.150177 323.163818,266.958710 
	C323.163818,264.632111 323.163818,262.535461 323.163818,260.061249 
	C325.526215,259.910706 327.779022,259.767151 330.562653,259.589752 
	C331.287994,255.601059 332.015717,251.599167 332.789734,247.342743 
	C330.407013,247.153549 328.303772,246.986557 325.933807,246.798386 
	C325.933807,244.544708 325.933807,242.462006 325.933807,240.577530 
	C328.848572,239.616852 332.617950,239.493530 334.118713,237.585632 
	C335.844330,235.391922 335.562561,231.619171 336.243134,228.059311 
	C337.940674,228.059311 339.566223,228.059311 341.611450,228.069092 
M339.127960,254.882812 
	C339.016174,256.459564 338.904419,258.036316 338.793152,259.606079 
	C342.906708,259.606079 346.630432,259.606079 350.570862,259.606079 
	C351.221039,255.298843 351.821167,251.323181 352.425720,247.318176 
	C348.050964,247.318176 344.332458,247.318176 340.572906,247.318176 
	C340.093689,249.786804 339.685150,251.891357 339.127960,254.882812 
z"/>
<path fill="#832D99" opacity="1.000000" stroke="none" 
	d="
M339.202301,254.439362 
	C339.685150,251.891357 340.093689,249.786804 340.572906,247.318176 
	C344.332458,247.318176 348.050964,247.318176 352.425720,247.318176 
	C351.821167,251.323181 351.221039,255.298843 350.570862,259.606079 
	C346.630432,259.606079 342.906708,259.606079 338.793152,259.606079 
	C338.904419,258.036316 339.016174,256.459564 339.202301,254.439362 
z"/>
</svg>