<svg version="1.1" id="Layer_1" xmlns="http://www.w3.org/2000/svg" xmlns:xlink="http://www.w3.org/1999/xlink" x="0px" y="0px"
	 width="100%" viewBox="0 0 2101 2049" enable-background="new 0 0 2101 2049" xml:space="preserve">
<path fill="#330000" opacity="1.000000" stroke="none" 
	d="
M2.000000,1718.000000 
	C2.000000,1257.943970 2.000000,797.887878 2.646570,336.551147 
	C4.177894,332.863434 5.417850,330.523651 5.888418,328.038147 
	C8.488927,314.302460 10.185123,300.356140 13.497423,286.801147 
	C32.594162,208.651443 72.861847,143.445877 133.808197,90.867058 
	C164.145020,64.695282 198.166824,44.729595 234.956696,29.345995 
	C262.130493,17.983341 290.552521,10.858966 319.588409,6.142160 
	C322.860168,5.610668 326.398499,5.831832 328.000000,2.000000 
	C811.389404,2.000000 1294.778809,2.000000 1779.430176,2.648821 
	C1786.698242,4.844549 1792.633423,6.788003 1798.721558,7.875816 
	C1849.289062,16.910913 1895.929810,35.840618 1938.752197,63.993824 
	C1968.975708,83.863884 1995.623535,107.892754 2018.715698,135.819199 
	C2042.440918,164.511032 2061.796387,195.821579 2076.114990,230.228622 
	C2086.911865,256.173431 2094.752197,282.961823 2099.573730,310.643555 
	C2100.182617,314.139709 2099.718750,318.212189 2104.000000,320.000000 
	C2104.000000,790.722717 2104.000000,1261.445435 2103.354492,1733.416260 
	C2101.686768,1737.376709 2100.369629,1740.017700 2099.692627,1742.813477 
	C2096.325928,1756.713867 2093.622803,1770.793457 2089.775635,1784.555420 
	C2079.104980,1822.725586 2062.098389,1858.096924 2039.425293,1890.471558 
	C2022.055542,1915.273926 2002.492310,1938.274292 1979.298584,1958.199341 
	C1957.208984,1977.175781 1933.811523,1994.051514 1908.187622,2007.712524 
	C1869.349976,2028.418457 1827.972412,2041.624146 1784.394897,2047.875000 
	C1781.116577,2048.345215 1777.583862,2048.147217 1776.000000,2052.000000 
	C1295.277222,2052.000000 814.554504,2052.000000 332.573120,2051.347656 
	C328.254730,2049.708252 325.262207,2048.275146 322.125031,2047.802979 
	C285.663177,2042.314453 250.546616,2032.118286 217.247955,2016.382446 
	C170.673386,1994.372925 129.957428,1964.410889 96.008682,1925.340698 
	C74.702156,1900.819946 56.347168,1874.376709 41.899258,1845.359619 
	C23.203939,1807.812012 11.099464,1768.151367 6.039439,1726.433838 
	C5.638121,1723.125244 5.812566,1719.633545 2.000000,1718.000000 
M1179.959106,1102.984131 
	C1179.292358,1101.100342 1178.626465,1099.216187 1177.958862,1097.332764 
	C1111.536377,909.942139 1045.115601,722.550964 978.686218,535.162842 
	C974.802979,524.208740 973.972961,523.377258 963.251770,523.366516 
	C890.252563,523.293152 817.253174,523.294189 744.253906,523.358704 
	C733.862122,523.367859 731.877991,525.316711 731.911499,535.701233 
	C732.010620,566.374695 725.896118,595.822144 715.835144,624.706116 
	C658.763550,788.553223 601.883850,952.467224 544.938599,1116.358398 
	C509.416107,1218.593506 473.882538,1320.824951 438.379913,1423.067017 
	C431.668640,1442.394409 434.218903,1445.900024 454.746277,1445.902222 
	C505.079163,1445.907837 555.412048,1445.910278 605.744934,1445.903809 
	C620.459717,1445.901855 623.518616,1443.680664 628.036621,1429.726929 
	C648.655212,1366.047852 669.261902,1302.364746 689.888489,1238.688354 
	C690.996643,1235.267578 692.247375,1231.892944 693.447266,1228.452148 
	C802.312927,1228.452148 910.527649,1228.452148 1018.947754,1228.452148 
	C1020.207764,1231.933716 1021.371521,1235.021362 1022.446716,1238.139282 
	C1044.593872,1302.362549 1066.717041,1366.593872 1088.881348,1430.811157 
	C1093.569702,1444.394653 1095.731567,1445.903809 1109.702881,1445.904907 
	C1166.702393,1445.909302 1223.701782,1445.911499 1280.701294,1445.899414 
	C1298.312500,1445.895752 1300.381104,1443.097168 1294.523193,1426.549316 
	C1256.515259,1319.184204 1218.454712,1211.837646 1179.959106,1102.984131 
M1393.764771,1373.000000 
	C1393.764771,1386.327637 1393.752075,1399.655396 1393.769409,1412.983032 
	C1393.780273,1421.312256 1393.529541,1429.657471 1393.961426,1437.966064 
	C1394.362915,1445.689697 1398.303711,1449.398682 1405.879517,1450.049072 
	C1408.858032,1450.304810 1411.872925,1450.161499 1414.871216,1450.161865 
	C1460.851807,1450.166626 1506.832397,1450.166748 1552.812988,1450.164551 
	C1561.142700,1450.164062 1569.478271,1450.336548 1577.800537,1450.084229 
	C1585.435669,1449.852661 1588.689819,1446.845337 1589.570190,1439.316772 
	C1590.032227,1435.366455 1589.830200,1431.331909 1589.830444,1427.335327 
	C1589.839722,1208.761108 1589.838745,990.186890 1589.837036,771.612671 
	C1589.837036,768.614014 1589.944824,765.608093 1589.779175,762.617981 
	C1589.268799,753.405579 1586.060303,750.325806 1576.766357,749.973083 
	C1575.102539,749.909973 1573.434814,749.948730 1571.768799,749.948730 
	C1518.124878,749.948059 1464.480835,749.947327 1410.836914,749.952026 
	C1408.505005,749.952209 1406.155762,749.832458 1403.844482,750.065002 
	C1397.212891,750.732239 1394.482056,753.447388 1393.924927,760.264221 
	C1393.600220,764.238403 1393.769409,768.255493 1393.769287,772.253235 
	C1393.764160,971.835510 1393.764771,1171.417725 1393.764771,1373.000000 
M1470.564087,674.718323 
	C1479.851074,675.260071 1489.149902,676.415894 1498.422974,676.237061 
	C1537.974243,675.474304 1568.398071,658.051331 1587.568604,623.529785 
	C1606.497559,589.443237 1607.522461,553.415955 1592.574097,517.625488 
	C1579.361328,485.990509 1555.397705,466.356812 1521.460815,459.460083 
	C1506.312622,456.381653 1491.142456,455.907562 1475.787476,457.956451 
	C1433.162598,463.644043 1397.678467,495.071350 1387.064941,536.672180 
	C1383.810059,549.429749 1383.295532,562.401672 1384.210083,575.359680 
	C1387.542603,622.575195 1415.391113,663.559814 1470.564087,674.718323 
z"/>
<path fill="#000000" opacity="1.000000" stroke="none" 
	d="
M2.000000,1718.937256 
	C5.812566,1719.633545 5.638121,1723.125244 6.039439,1726.433838 
	C11.099464,1768.151367 23.203939,1807.812012 41.899258,1845.359619 
	C56.347168,1874.376709 74.702156,1900.819946 96.008682,1925.340698 
	C129.957428,1964.410889 170.673386,1994.372925 217.247955,2016.382446 
	C250.546616,2032.118286 285.663177,2042.314453 322.125031,2047.802979 
	C325.262207,2048.275146 328.254730,2049.708252 331.657227,2051.347656 
	C222.145111,2052.000000 112.290230,2052.000000 2.000000,2052.000000 
	C2.000000,1941.291870 2.000000,1830.583252 2.000000,1718.937256 
z"/>
<path fill="#000000" opacity="1.000000" stroke="none" 
	d="
M327.062683,2.000000 
	C326.398499,5.831832 322.860168,5.610668 319.588409,6.142160 
	C290.552521,10.858966 262.130493,17.983341 234.956696,29.345995 
	C198.166824,44.729595 164.145020,64.695282 133.808197,90.867058 
	C72.861847,143.445877 32.594162,208.651443 13.497423,286.801147 
	C10.185123,300.356140 8.488927,314.302460 5.888418,328.038147 
	C5.417850,330.523651 4.177894,332.863434 2.646570,335.635254 
	C2.000000,224.814407 2.000000,113.628822 2.000000,2.000000 
	C110.041382,2.000000 218.083374,2.000000 327.062683,2.000000 
z"/>
<path fill="#000000" opacity="1.000000" stroke="none" 
	d="
M1776.937256,2052.000000 
	C1777.583862,2048.147217 1781.116577,2048.345215 1784.394897,2047.875000 
	C1827.972412,2041.624146 1869.349976,2028.418457 1908.187622,2007.712524 
	C1933.811523,1994.051514 1957.208984,1977.175781 1979.298584,1958.199341 
	C2002.492310,1938.274292 2022.055542,1915.273926 2039.425293,1890.471558 
	C2062.098389,1858.096924 2079.104980,1822.725586 2089.775635,1784.555420 
	C2093.622803,1770.793457 2096.325928,1756.713867 2099.692627,1742.813477 
	C2100.369629,1740.017700 2101.686768,1737.376709 2103.354492,1734.332275 
	C2104.000000,1839.856323 2104.000000,1945.712524 2104.000000,2052.000000 
	C1995.291870,2052.000000 1886.583252,2052.000000 1776.937256,2052.000000 
z"/>
<path fill="#000000" opacity="1.000000" stroke="none" 
	d="
M2104.000000,319.062683 
	C2099.718750,318.212189 2100.182617,314.139709 2099.573730,310.643555 
	C2094.752197,282.961823 2086.911865,256.173431 2076.114990,230.228622 
	C2061.796387,195.821579 2042.440918,164.511032 2018.715698,135.819199 
	C1995.623535,107.892754 1968.975708,83.863884 1938.752197,63.993824 
	C1895.929810,35.840618 1849.289062,16.910913 1798.721558,7.875816 
	C1792.633423,6.788003 1786.698242,4.844549 1780.346069,2.648821 
	C1887.852661,2.000000 1995.705200,2.000000 2104.000000,2.000000 
	C2104.000000,107.374710 2104.000000,212.750031 2104.000000,319.062683 
z"/>
<path fill="#FE9900" opacity="1.000000" stroke="none" 
	d="
M1180.185303,1103.734619 
	C1218.454712,1211.837646 1256.515259,1319.184204 1294.523193,1426.549316 
	C1300.381104,1443.097168 1298.312500,1445.895752 1280.701294,1445.899414 
	C1223.701782,1445.911499 1166.702393,1445.909302 1109.702881,1445.904907 
	C1095.731567,1445.903809 1093.569702,1444.394653 1088.881348,1430.811157 
	C1066.717041,1366.593872 1044.593872,1302.362549 1022.446716,1238.139282 
	C1021.371521,1235.021362 1020.207764,1231.933716 1018.947754,1228.452148 
	C910.527649,1228.452148 802.312927,1228.452148 693.447266,1228.452148 
	C692.247375,1231.892944 690.996643,1235.267578 689.888489,1238.688354 
	C669.261902,1302.364746 648.655212,1366.047852 628.036621,1429.726929 
	C623.518616,1443.680664 620.459717,1445.901855 605.744934,1445.903809 
	C555.412048,1445.910278 505.079163,1445.907837 454.746277,1445.902222 
	C434.218903,1445.900024 431.668640,1442.394409 438.379913,1423.067017 
	C473.882538,1320.824951 509.416107,1218.593506 544.938599,1116.358398 
	C601.883850,952.467224 658.763550,788.553223 715.835144,624.706116 
	C725.896118,595.822144 732.010620,566.374695 731.911499,535.701233 
	C731.877991,525.316711 733.862122,523.367859 744.253906,523.358704 
	C817.253174,523.294189 890.252563,523.293152 963.251770,523.366516 
	C973.972961,523.377258 974.802979,524.208740 978.686218,535.162842 
	C1045.115601,722.550964 1111.536377,909.942139 1177.958862,1097.332764 
	C1178.626465,1099.216187 1179.292358,1101.100342 1180.185303,1103.734619 
M805.007080,855.953735 
	C785.178284,920.413940 765.349487,984.874207 745.470093,1049.498779 
	C819.006592,1049.498779 892.146973,1049.498779 966.355042,1049.498779 
	C928.077942,928.192749 888.080078,808.377441 853.784790,686.607849 
	C851.849426,690.105835 850.903259,693.464844 850.099121,696.857483 
	C847.641968,707.224609 845.697021,717.737305 842.735596,727.956482 
	C830.503357,770.167053 817.969543,812.290161 805.007080,855.953735 
z"/>
<path fill="#FE9A00" opacity="1.000000" stroke="none" 
	d="
M1393.764771,1372.000000 
	C1393.764771,1171.417725 1393.764160,971.835510 1393.769287,772.253235 
	C1393.769409,768.255493 1393.600220,764.238403 1393.924927,760.264221 
	C1394.482056,753.447388 1397.212891,750.732239 1403.844482,750.065002 
	C1406.155762,749.832458 1408.505005,749.952209 1410.836914,749.952026 
	C1464.480835,749.947327 1518.124878,749.948059 1571.768799,749.948730 
	C1573.434814,749.948730 1575.102539,749.909973 1576.766357,749.973083 
	C1586.060303,750.325806 1589.268799,753.405579 1589.779175,762.617981 
	C1589.944824,765.608093 1589.837036,768.614014 1589.837036,771.612671 
	C1589.838745,990.186890 1589.839722,1208.761108 1589.830444,1427.335327 
	C1589.830200,1431.331909 1590.032227,1435.366455 1589.570190,1439.316772 
	C1588.689819,1446.845337 1585.435669,1449.852661 1577.800537,1450.084229 
	C1569.478271,1450.336548 1561.142700,1450.164062 1552.812988,1450.164551 
	C1506.832397,1450.166748 1460.851807,1450.166626 1414.871216,1450.161865 
	C1411.872925,1450.161499 1408.858032,1450.304810 1405.879517,1450.049072 
	C1398.303711,1449.398682 1394.362915,1445.689697 1393.961426,1437.966064 
	C1393.529541,1429.657471 1393.780273,1421.312256 1393.769409,1412.983032 
	C1393.752075,1399.655396 1393.764771,1386.327637 1393.764771,1372.000000 
z"/>
<path fill="#FE9900" opacity="1.000000" stroke="none" 
	d="
M1469.710938,674.542847 
	C1415.391113,663.559814 1387.542603,622.575195 1384.210083,575.359680 
	C1383.295532,562.401672 1383.810059,549.429749 1387.064941,536.672180 
	C1397.678467,495.071350 1433.162598,463.644043 1475.787476,457.956451 
	C1491.142456,455.907562 1506.312622,456.381653 1521.460815,459.460083 
	C1555.397705,466.356812 1579.361328,485.990509 1592.574097,517.625488 
	C1607.522461,553.415955 1606.497559,589.443237 1587.568604,623.529785 
	C1568.398071,658.051331 1537.974243,675.474304 1498.422974,676.237061 
	C1489.149902,676.415894 1479.851074,675.260071 1469.710938,674.542847 
z"/>
<path fill="#340100" opacity="1.000000" stroke="none" 
	d="
M805.276794,855.199585 
	C817.969543,812.290161 830.503357,770.167053 842.735596,727.956482 
	C845.697021,717.737305 847.641968,707.224609 850.099121,696.857483 
	C850.903259,693.464844 851.849426,690.105835 853.784790,686.607849 
	C888.080078,808.377441 928.077942,928.192749 966.355042,1049.498779 
	C892.146973,1049.498779 819.006592,1049.498779 745.470093,1049.498779 
	C765.349487,984.874207 785.178284,920.413940 805.276794,855.199585 
z"/>
</svg>